<!-- icon666.com - MILLIONS vector ICONS FREE --><svg viewBox="0 0 48 48" xmlns="http://www.w3.org/2000/svg"><g id="_22-happy" data-name="22-happy"><circle cx="24" cy="24" fill="#ffd241" r="23"></circle><path d="m9 24a23.00152 23.00152 0 0 1 19-22.64618 23 23 0 1 0 0 45.29236 23.00156 23.00156 0 0 1 -19-22.64618z" fill="#ffb028"></path><path d="m37 28c0 7.1797-5.8203 12-13 12s-13-4.8203-13-12z" fill="#6ee1ef"></path><path d="m24 34c-3.866 0-7 1.79083-7 4 0 0 .01685.09888.0575.26849a14.78375 14.78375 0 0 0 13.885 0c.04065-.16961.0575-.26849.0575-.26849 0-2.20917-3.134-4-7-4z" fill="#ef4136"></path><path d="m24 0a24 24 0 1 0 24 24 24.0275 24.0275 0 0 0 -24-24zm0 46a22 22 0 1 1 22-22 22.02489 22.02489 0 0 1 -22 22z"></path><path d="m11 18a3 3 0 0 1 6 0 1 1 0 0 0 2 0 5 5 0 0 0 -10 0 1 1 0 0 0 2 0z"></path><path d="m34 13a5.00588 5.00588 0 0 0 -5 5 1 1 0 0 0 2 0 3 3 0 0 1 6 0 1 1 0 0 0 2 0 5.00588 5.00588 0 0 0 -5-5z"></path><path d="m37 27h-26a.99974.99974 0 0 0 -1 1c0 7.41113 6.01855 13 14 13s14-5.58887 14-13a.99974.99974 0 0 0 -1-1zm-18.95392 10.67633c.33685-1.32519 2.68492-2.67633 5.95392-2.67633s5.61707 1.35114 5.95392 2.67633a13.4757 13.4757 0 0 1 -5.95392 1.32367 13.4757 13.4757 0 0 1 -5.95392-1.32367zm13.65092-1.05225c-.935-2.11308-3.97868-3.62408-7.697-3.62408s-6.762 1.511-7.697 3.62408a10.41721 10.41721 0 0 1 -4.261-7.62408h23.916a10.41721 10.41721 0 0 1 -4.261 7.62408z"></path></g></svg>