<!-- icon666.com - MILLIONS vector ICONS FREE --><svg id="Icon_Set" viewBox="0 0 256 256" xmlns="http://www.w3.org/2000/svg"><g><g><g><g><path d="m182.256 128 38.106-38.107c14.982-14.982 14.982-39.273 0-54.256-14.982-14.982-39.274-14.982-54.256 0l-38.106 38.107-38.106-38.107c-14.982-14.982-39.274-14.982-54.256 0s-14.982 39.273 0 54.256l38.106 38.107-38.106 38.107c-14.982 14.982-14.982 39.273 0 54.256 14.982 14.982 39.274 14.982 54.256 0l38.106-38.107 38.106 38.107c14.982 14.982 39.274 14.982 54.256 0s14.982-39.273 0-54.256z" fill="#ff4a73"></path></g><g><path d="m52.688 220.359c5.307 5.307 11.785 8.739 18.604 10.274-12.421 2.829-25.979-.591-35.65-10.274-14.99-14.979-14.99-39.265 0-54.254l38.104-38.105-38.105-38.105c-14.99-14.99-14.99-39.275 0-54.254 9.671-9.683 23.229-13.103 35.65-10.274-6.819 1.534-13.296 4.966-18.604 10.274-14.99 14.979-14.99 39.264 0 54.254l38.106 38.105-38.105 38.105c-14.99 14.989-14.99 39.275 0 54.254z" fill="#f973a3"></path></g><g><path d="m220.359 166.105c14.99 14.99 14.99 39.276 0 54.254-9.671 9.683-23.229 13.103-35.65 10.274 6.819-1.534 13.296-4.966 18.604-10.274 14.99-14.979 14.99-39.265 0-54.254l-38.106-38.105 38.105-38.105c14.99-14.99 14.99-39.275 0-54.254-5.307-5.307-11.785-8.739-18.604-10.274 12.421-2.829 25.979.591 35.65 10.274 14.99 14.979 14.99 39.264 0 54.254l-38.104 38.105z" fill="#ea2a6a"></path></g></g></g><g fill="#5f266d"><path d="m187.913 128 35.277-35.279c16.557-16.555 16.559-43.354 0-59.911-16.555-16.555-43.355-16.559-59.913 0l-35.277 35.277-35.278-35.277c-16.519-16.518-43.395-16.518-59.914 0-16.556 16.555-16.558 43.354 0 59.911l35.279 35.279-35.278 35.279c-16.555 16.554-16.558 43.354 0 59.911 16.519 16.518 43.395 16.518 59.914 0l35.277-35.277 35.278 35.277c16.555 16.556 43.354 16.559 59.913 0 16.557-16.556 16.558-43.354 0-59.911zm29.621 89.534c-13.429 13.429-35.168 13.431-48.599 0l-38.106-38.106c-1.563-1.563-4.095-1.563-5.657 0l-38.106 38.106c-13.399 13.399-35.2 13.397-48.599 0-13.428-13.429-13.433-35.167 0-48.599l38.106-38.107c1.562-1.562 1.562-4.095 0-5.656l-38.108-38.108c-13.429-13.429-13.431-35.166 0-48.599 13.399-13.399 35.201-13.399 48.6 0l38.106 38.106c1.563 1.563 4.095 1.563 5.657 0l38.106-38.106c13.429-13.429 35.168-13.431 48.599 0 13.429 13.43 13.433 35.167 0 48.599l-38.106 38.107c-1.562 1.562-1.562 4.095 0 5.656l38.106 38.107c13.431 13.431 13.432 35.167.001 48.6z"></path><path d="m166.28 109.395-7.109 7.109c-1.562 1.562-1.562 4.095 0 5.656 1.561 1.562 4.094 1.563 5.657 0l7.109-7.109c1.562-1.562 1.562-4.095 0-5.656-1.562-1.563-4.095-1.561-5.657 0z"></path><path d="m182.544 104.445 28.284-28.284c1.562-1.562 1.562-4.095 0-5.656-1.563-1.563-4.095-1.563-5.657 0l-28.284 28.284c-1.562 1.562-1.562 4.095 0 5.656 1.563 1.563 4.095 1.563 5.657 0z"></path></g></g></svg>