<!-- icon666.com - MILLIONS vector ICONS FREE --><svg version="1.1" id="Capa_1" xmlns="http://www.w3.org/2000/svg" xmlns:xlink="http://www.w3.org/1999/xlink" x="0px" y="0px" viewBox="0 0 512 512" style="enable-background:new 0 0 512 512;" xml:space="preserve"><path style="fill:#FFFFFF;" d="M57.962,173.877h396.076c21.34,0,38.642,17.302,38.642,38.642v241.509 c0,21.34-17.302,38.642-38.642,38.642H57.962c-21.34,0-38.642-17.302-38.642-38.642V212.518 C19.321,191.178,36.622,173.877,57.962,173.877z"></path><path style="fill:#FFC868;" d="M454.038,173.877h-77.283v318.792h77.283c21.34,0,38.642-17.302,38.642-38.642V212.518 C492.679,191.178,475.378,173.877,454.038,173.877z"></path><path style="fill:#70CBF6;" d="M57.962,198.027h270.491c8.004,0,14.491,6.487,14.491,14.491v241.509 c0,8.004-6.487,14.491-14.491,14.491H57.962c-8.004,0-14.491-6.487-14.491-14.491V212.518 C43.472,204.514,49.959,198.027,57.962,198.027z"></path><circle style="fill:#FF7575;" cx="434.717" cy="275.31" r="33.811"></circle><path style="fill:#FFFFFF;" d="M434.717,367.084c8.004,0,14.491-6.487,14.491-14.491c0-8.004-6.487-14.491-14.491-14.491 c-8.004,0-14.491,6.487-14.491,14.491C420.226,360.597,426.713,367.084,434.717,367.084z M434.717,396.065 c-8.004,0-14.491,6.487-14.491,14.491s6.487,14.491,14.491,14.491c8.004,0,14.491-6.487,14.491-14.491 S442.721,396.065,434.717,396.065z"></path><path style="fill:#171C1F;" d="M434.717,333.273c-10.67,0-19.321,8.651-19.321,19.321c0,10.67,8.651,19.321,19.321,19.321 s19.321-8.651,19.321-19.321C454.038,341.924,445.387,333.273,434.717,333.273z M434.717,362.254c-5.337,0-9.66-4.323-9.66-9.66 s4.323-9.66,9.66-9.66s9.66,4.323,9.66,9.66S440.054,362.254,434.717,362.254z M367.094,492.669h9.66V173.877h-9.66V492.669z M328.453,193.197H57.962c-10.67,0-19.321,8.651-19.321,19.321v241.509c0,10.67,8.651,19.321,19.321,19.321h270.491 c10.67,0,19.321-8.651,19.321-19.321V212.518C347.774,201.848,339.123,193.197,328.453,193.197z M338.113,454.027 c0,5.337-4.323,9.66-9.66,9.66H57.962c-5.337,0-9.66-4.323-9.66-9.66V212.518c0-5.337,4.323-9.66,9.66-9.66h270.491 c5.337,0,9.66,4.323,9.66,9.66V454.027z M434.717,236.669c-21.34,0-38.642,17.302-38.642,38.641 c0,21.34,17.302,38.642,38.642,38.642c21.34,0,38.642-17.302,38.642-38.642C473.358,253.971,456.057,236.669,434.717,236.669z M434.717,304.292c-16.007,0-28.981-12.974-28.981-28.981c0-16.007,12.974-28.981,28.981-28.981s28.981,12.974,28.981,28.981 C463.698,291.318,450.724,304.292,434.717,304.292z M434.717,391.235c-10.67,0-19.321,8.651-19.321,19.321 s8.651,19.321,19.321,19.321s19.321-8.651,19.321-19.321S445.387,391.235,434.717,391.235z M434.717,420.216 c-5.337,0-9.66-4.323-9.66-9.66s4.323-9.66,9.66-9.66s9.66,4.323,9.66,9.66S440.054,420.216,434.717,420.216z"></path><g style="opacity:0.25;"><path d="M434.717,236.669c-2.666,0-4.83,2.164-4.83,4.83v19.321c0,2.666,2.164,4.83,4.83,4.83c2.666,0,4.83-2.164,4.83-4.83 v-19.321C439.547,238.833,437.383,236.669,434.717,236.669z"></path></g><g style="opacity:0.1;"><path d="M453.362,357.424c-2.797,10.298-13.413,16.374-23.711,13.578c-6.613-1.797-11.781-6.965-13.578-13.578 c-2.797,10.298,3.28,20.915,13.578,23.711c10.298,2.797,20.915-3.28,23.711-13.578 C454.265,364.239,454.265,360.742,453.362,357.424z M434.717,323.612c21.34-0.019,38.627-17.336,38.608-38.675 c0-1.604-0.101-3.202-0.304-4.796c-2.816,21.156-22.248,36.019-43.404,33.203c-17.292-2.304-30.899-15.911-33.203-33.203 c-2.666,21.176,12.336,40.501,33.507,43.167C431.515,323.511,433.113,323.612,434.717,323.612z M434.717,429.877 c-8.786-0.029-16.447-5.985-18.645-14.491c-2.797,10.298,3.28,20.915,13.578,23.711s20.915-3.28,23.711-13.578 c0.903-3.318,0.903-6.815,0-10.134C451.164,423.892,443.503,429.848,434.717,429.877z M57.962,222.178h270.491 c5.337,0,9.66,4.323,9.66,9.66v-19.321c0-5.337-4.323-9.66-9.66-9.66H57.962c-5.337,0-9.66,4.323-9.66,9.66v19.321 C48.302,226.501,52.625,222.178,57.962,222.178z M454.038,483.009H57.962c-21.34,0-38.642-17.302-38.642-38.642v9.66 c0,21.34,17.302,38.642,38.642,38.642h396.076c21.34,0,38.642-17.302,38.642-38.642v-9.66 C492.679,465.707,475.378,483.009,454.038,483.009z"></path></g><g style="opacity:0.25;"><path style="fill:#FFFFFF;" d="M95.203,269.08l19.321-19.321c2.024-1.734,2.261-4.787,0.526-6.811 c-1.734-2.024-4.787-2.261-6.811-0.526c-0.188,0.164-0.367,0.338-0.526,0.526l-19.321,19.321c-2.024,1.734-2.261,4.787-0.526,6.811 c1.734,2.024,4.787,2.26,6.811,0.526C94.865,269.447,95.044,269.268,95.203,269.08z M144.906,246.329 c-1.285-0.01-2.517,0.498-3.429,1.401l0,0l-48.302,48.302c-1.734,2.024-1.497,5.077,0.526,6.811c1.806,1.55,4.478,1.55,6.284,0l0,0 l48.302-48.302c1.869-1.903,1.835-4.961-0.068-6.83C147.335,246.841,146.147,246.349,144.906,246.329z"></path></g><path style="fill:#171C1F;" d="M454.038,154.556H279.33l80.085-80.133c3.772-3.772,3.772-9.897,0-13.669s-9.897-3.772-13.669,0 L256,150.547L108.245,2.84l0,0c-3.772-3.772-9.897-3.772-13.669,0s-3.772,9.897,0,13.669l0,0L232.67,154.556H57.962 C25.953,154.556,0,180.508,0,212.518v241.509c0,32.01,25.953,57.962,57.962,57.962h396.076c32.01,0,57.962-25.953,57.962-57.962 V212.518C512,180.508,486.047,154.556,454.038,154.556z M492.679,454.027c0,21.34-17.302,38.642-38.642,38.642H57.962 c-21.34,0-38.642-17.302-38.642-38.642V212.518c0-21.34,17.302-38.642,38.642-38.642h396.076c21.34,0,38.642,17.302,38.642,38.642 V454.027z"></path></svg>